<svg width="24" height="25" viewBox="0 0 24 25" fill="none" xmlns="http://www.w3.org/2000/svg">
<g clip-path="url(#clip0_1_62125)">
<path d="M22 9.49999H17.21L12.82 2.92999C12.42 2.33999 11.55 2.33999 11.16 2.92999L6.77 9.49999H2C1.45 9.49999 1 9.94999 1 10.5C1 10.59 1.01 10.68 1.04 10.77L3.58 20.04C3.81 20.88 4.58 21.5 5.5 21.5H18.5C19.42 21.5 20.19 20.88 20.43 20.04L22.97 10.77L23 10.5C23 9.94999 22.55 9.49999 22 9.49999ZM11.99 5.28999L14.8 9.49999H9.18L11.99 5.28999ZM12 17.5C10.9 17.5 10 16.6 10 15.5C10 14.4 10.9 13.5 12 13.5C13.1 13.5 14 14.4 14 15.5C14 16.6 13.1 17.5 12 17.5Z" fill="#333333"/>
</g>
<defs>
<clipPath id="clip0_1_62125">
<rect width="24" height="24" fill="white" transform="translate(0 0.5)"/>
</clipPath>
</defs>
</svg>
